<svg width="13" height="15" viewBox="0 0 13 15" fill="none" xmlns="http://www.w3.org/2000/svg">
<path d="M0.78125 12.75C0.559896 12.75 0.374219 12.678 0.224219 12.534C0.0747397 12.3905 0 12.2125 0 12C0 11.7875 0.0747397 11.6095 0.224219 11.466C0.374219 11.322 0.559896 11.25 0.78125 11.25H1.5625V6C1.5625 4.9625 1.88802 4.0405 2.53906 3.234C3.1901 2.428 4.03646 1.9 5.07812 1.65V1.125C5.07812 0.8125 5.19219 0.547 5.42031 0.3285C5.64792 0.1095 5.92448 0 6.25 0C6.57552 0 6.85208 0.1095 7.07969 0.3285C7.30781 0.547 7.42188 0.8125 7.42188 1.125V1.65C8.46354 1.9 9.3099 2.428 9.96094 3.234C10.612 4.0405 10.9375 4.9625 10.9375 6V11.25H11.7188C11.9401 11.25 12.1255 11.322 12.275 11.466C12.425 11.6095 12.5 11.7875 12.5 12C12.5 12.2125 12.425 12.3905 12.275 12.534C12.1255 12.678 11.9401 12.75 11.7188 12.75H0.78125ZM6.25 15C5.82031 15 5.4526 14.8532 5.14688 14.5597C4.84063 14.2657 4.6875 13.9125 4.6875 13.5H7.8125C7.8125 13.9125 7.65964 14.2657 7.35391 14.5597C7.04766 14.8532 6.67969 15 6.25 15Z" fill="#EFEFEF"/>
</svg>
