<svg width="17" height="17" viewBox="0 0 20 20" fill="none" xmlns="http://www.w3.org/2000/svg">
<path d="M8.4 16.8549C5.6568 17.7805 3.3712 16.8549 2 14.0005" stroke="#1C1C1C" stroke-linecap="round" stroke-linejoin="round"/>
<path d="M8.3999 18.0004V15.4068C8.3999 14.9284 8.5471 14.5124 8.7839 14.1364C8.9471 13.8788 8.8351 13.5124 8.5415 13.4324C6.1071 12.762 4.3999 11.686 4.3999 8.11641C4.3999 7.18841 4.7039 6.31641 5.2383 5.55641C5.3711 5.36761 5.4383 5.27321 5.4543 5.18841C5.4703 5.10201 5.4423 4.99081 5.3863 4.76681C5.1599 3.85801 5.1751 2.89241 5.5143 2.02281C5.5143 2.02281 6.2159 1.79321 7.8135 2.79081C8.1783 3.01881 8.3607 3.13321 8.5215 3.15881C8.6823 3.18441 8.8967 3.13081 9.3255 3.02361C9.9386 2.87161 10.5683 2.79663 11.1999 2.80041C11.8315 2.79772 12.4611 2.87295 13.0743 3.02441C13.5031 3.13161 13.7183 3.18441 13.8791 3.15961C14.0391 3.13401 14.2215 3.01961 14.5863 2.79161C16.1839 1.79401 16.8855 2.02361 16.8855 2.02361C17.2247 2.89321 17.2399 3.85881 17.0135 4.76761C16.9575 4.99161 16.9303 5.10361 16.9463 5.18841C16.9623 5.27321 17.0287 5.36841 17.1615 5.55721C17.6959 6.31721 17.9999 7.18921 17.9999 8.11721C17.9999 11.6868 16.2927 12.7628 13.8583 13.4316C13.5647 13.5124 13.4527 13.8788 13.6159 14.1356C13.8527 14.5116 13.9999 14.9276 13.9999 15.4068V18.0004" stroke="#1C1C1C" stroke-linecap="round" stroke-linejoin="round"/>
</svg>
