<svg width="9" height="7" viewBox="0 0 9 7" fill="none" xmlns="http://www.w3.org/2000/svg">
<path d="M0.450276 6.73823H8.55059C8.6326 6.73797 8.71299 6.71535 8.7831 6.6728C8.85322 6.63026 8.9104 6.5694 8.9485 6.49677C8.98659 6.42414 9.00416 6.3425 8.99931 6.26063C8.99445 6.17876 8.96737 6.09977 8.92096 6.03215L4.8708 0.18192C4.70294 -0.0606399 4.29883 -0.0606399 4.13052 0.18192L0.0803613 6.03215C0.0334807 6.09963 0.00598878 6.17866 0.00087255 6.26067C-0.00424368 6.34267 0.0132114 6.42451 0.0513415 6.49729C0.0894715 6.57007 0.146818 6.63101 0.217151 6.67349C0.287483 6.71597 0.368112 6.73836 0.450276 6.73823Z" fill="#09A249"/>
</svg>
